<?xml version="1.0" encoding="UTF-8" standalone="no"?>
<!DOCTYPE svg PUBLIC "-//W3C//DTD SVG 1.1//EN" "http://www.w3.org/Graphics/SVG/1.1/DTD/svg11.dtd">
<svg xmlns="http://www.w3.org/2000/svg" version="1.1" viewBox="0 0 512 512">
<path stroke="#ffffff" stroke-width="2.0" fill="none" stroke-linecap="butt" vector-effect="non-scaling-stroke" d="
  M 155.20 242.38
  C 155.20 242.31 155.14 242.25 155.07 242.25
  L 87.75 242.25
  C 87.68 242.25 87.62 242.31 87.62 242.38
  L 87.62 242.38
  C 87.62 242.45 87.68 242.51 87.75 242.51
  L 155.07 242.51
  C 155.14 242.51 155.20 242.45 155.20 242.38
  L 155.20 242.38"
/>
<path fill="#ffffff" d="
  M 240.31 0.00
  Q 255.94 0.00 271.56 0.00
  Q 329.09 3.43 378.19 30.31
  Q 419.06 52.69 449.19 87.31
  Q 505.98 152.57 512.00 239.81
  Q 512.00 256.19 512.00 272.56
  Q 508.99 319.72 489.94 361.44
  Q 457.53 432.42 390.81 474.31
  Q 337.12 508.03 271.44 512.00
  Q 255.81 512.00 240.19 512.00
  Q 168.62 507.45 111.50 468.00
  Q 56.35 429.91 26.56 370.94
  Q 3.27 324.83 0.00 271.94
  Q 0.00 255.81 0.00 239.69
  Q 3.89 179.50 32.56 129.81
  Q 75.85 54.80 154.56 20.31
  Q 194.91 2.64 240.31 0.00
  Z
  M 219.74 164.81
  L 290.37 165.00
  C 291.30 165.00 292.17 164.49 292.64 163.67
  L 327.70 102.62
  C 328.09 101.94 328.10 101.10 327.72 100.41
  Q 314.97 77.24 301.15 54.17
  Q 301.10 54.09 300.16 52.12
  Q 299.06 49.79 296.41 49.52
  Q 294.19 49.30 294.10 49.28
  Q 250.31 41.06 206.80 51.55
  Q 205.21 51.93 204.39 53.37
  L 179.65 96.74
  C 179.50 97.01 179.50 97.34 179.65 97.61
  L 218.67 164.19
  C 218.89 164.57 219.30 164.81 219.74 164.81
  Z
  M 152.46 111.18
  L 105.04 111.01
  C 104.39 111.01 103.77 111.28 103.31 111.76
  Q 68.34 148.97 54.20 196.97
  C 54.11 197.28 54.15 197.61 54.31 197.88
  L 79.22 241.22
  C 79.50 241.70 80.02 242.00 80.59 242.00
  L 157.50 242.00
  C 158.51 242.00 159.45 241.45 159.96 240.57
  L 193.85 182.00
  C 194.28 181.25 194.28 180.32 193.84 179.58
  L 154.24 112.21
  C 153.87 111.57 153.19 111.18 152.46 111.18
  Z
  M 354.42 114.29
  L 317.34 178.54
  C 316.95 179.21 316.95 180.04 317.33 180.70
  L 352.31 241.21
  C 352.59 241.70 353.12 242.00 353.68 242.00
  L 417.94 241.94
  C 418.25 241.94 418.54 241.78 418.69 241.51
  L 452.31 183.40
  C 452.81 182.53 452.89 181.48 452.52 180.55
  Q 438.52 145.31 413.45 117.00
  Q 413.38 116.93 412.62 115.95
  Q 411.12 114.03 408.50 114.02
  Q 381.53 113.95 354.80 114.06
  C 354.65 114.06 354.50 114.15 354.42 114.29
  Z
  M 155.20 242.38
  C 155.20 242.31 155.14 242.25 155.07 242.25
  L 87.75 242.25
  C 87.68 242.25 87.62 242.31 87.62 242.38
  L 87.62 242.38
  C 87.62 242.45 87.68 242.51 87.75 242.51
  L 155.07 242.51
  C 155.14 242.51 155.20 242.45 155.20 242.38
  L 155.20 242.38
  Z
  M 357.62 398.81
  Q 381.89 399.14 406.34 399.01
  Q 406.42 399.00 408.14 399.13
  Q 410.38 399.29 411.52 397.61
  Q 412.78 395.76 412.85 395.68
  Q 438.49 366.85 452.83 330.57
  C 452.97 330.23 452.94 329.84 452.76 329.52
  L 418.82 270.61
  C 418.60 270.23 418.20 270.00 417.76 270.00
  L 353.77 270.00
  C 353.38 270.00 353.02 270.21 352.82 270.55
  L 318.52 329.66
  C 318.05 330.47 317.96 331.45 318.29 332.34
  Q 319.19 334.79 320.67 337.29
  Q 338.62 367.62 356.80 398.34
  C 356.97 398.63 357.29 398.81 357.62 398.81
  Z
  M 68.24 350.54
  Q 81.51 376.98 101.66 398.64
  C 101.88 398.87 102.18 399.00 102.50 399.00
  L 155.92 399.00
  C 156.57 399.00 157.17 398.65 157.49 398.09
  L 194.66 333.70
  C 195.05 333.03 195.05 332.19 194.66 331.52
  L 160.11 271.58
  C 159.90 271.22 159.52 271.00 159.11 271.00
  L 79.85 271.00
  C 79.46 271.00 79.10 271.21 78.91 271.55
  L 54.54 314.06
  C 54.28 314.51 54.22 315.06 54.37 315.56
  Q 59.87 333.87 68.24 350.54
  Z
  M 259.93 466.22
  Q 281.18 466.00 301.95 461.05
  C 302.28 460.97 302.57 460.81 302.78 460.58
  Q 304.24 458.94 306.31 455.31
  Q 318.00 434.77 330.49 412.96
  C 330.79 412.44 330.78 411.80 330.48 411.29
  L 292.89 347.64
  C 292.65 347.24 292.23 347.00 291.77 347.00
  L 221.14 347.00
  C 220.55 347.00 220.00 347.27 219.65 347.74
  Q 218.03 349.85 216.68 352.21
  Q 199.92 381.53 183.06 410.78
  Q 182.42 411.90 181.58 412.87
  C 181.38 413.10 181.35 413.43 181.50 413.68
  L 208.17 459.44
  C 208.63 460.23 209.40 460.80 210.29 461.02
  Q 225.23 464.62 239.95 465.65
  Q 249.51 466.33 259.93 466.22
  Z"
/>
<rect fill="#ffffff" x="87.62" y="242.25" width="67.58" height="0.26" rx="0.13"/>
</svg>
