<?xml version="1.0" encoding="UTF-8" standalone="no"?>
<!DOCTYPE svg PUBLIC "-//W3C//DTD SVG 1.1//EN" "http://www.w3.org/Graphics/SVG/1.1/DTD/svg11.dtd">
<svg xmlns="http://www.w3.org/2000/svg" version="1.1" viewBox="0 0 504 598">
<g stroke-width="2.0" fill="none" stroke-linecap="butt">
<path stroke="#606060" vector-effect="non-scaling-stroke" d="
  M 20.17 96.65
  Q 21.32 170.18 27.39 242.54
  Q 28.27 252.98 30.08 262.33
  Q 36.70 296.42 46.82 329.64
  Q 49.70 339.06 53.12 348.62
  Q 61.20 371.19 68.06 385.44
  Q 87.20 425.15 116.91 464.57
  Q 123.23 472.96 129.38 480.21
  Q 148.13 502.35 166.81 518.19
  Q 195.71 542.69 201.06 546.94
  Q 210.27 554.24 222.98 561.80
  Q 235.02 568.96 236.81 569.96
  Q 243.72 573.78 251.42 576.76
  C 252.05 577.00 252.75 577.00 253.37 576.75
  Q 264.98 572.13 275.08 566.00
  Q 281.86 561.88 288.65 557.78
  Q 295.84 553.44 301.74 548.86
  Q 319.19 535.31 337.19 519.44
  Q 357.18 501.80 374.17 482.52
  Q 380.46 475.38 386.80 467.02
  Q 408.78 437.99 426.72 406.31
  Q 431.72 397.47 435.98 388.59
  Q 448.88 361.66 457.31 335.56
  Q 468.60 300.63 475.56 261.85
  Q 477.31 252.11 478.27 242.05
  Q 480.46 219.23 482.25 186.50
  Q 484.72 141.31 485.68 96.54
  C 485.69 96.04 485.34 95.61 484.85 95.52
  Q 460.67 90.92 436.45 87.01
  Q 422.12 84.69 416.72 83.66
  Q 359.30 72.71 305.88 48.70
  Q 281.20 37.61 257.10 25.31
  Q 253.35 23.40 250.06 25.06
  Q 209.56 45.60 171.27 60.60
  Q 161.31 64.50 152.48 67.44
  Q 117.96 78.89 82.07 85.10
  Q 53.82 89.99 25.51 94.55
  Q 22.89 94.97 20.73 95.82
  C 20.39 95.95 20.16 96.28 20.17 96.65"
/>
<path stroke="#606060" vector-effect="non-scaling-stroke" d="
  M 253.12 39.92
  Q 250.75 39.67 248.56 40.81
  Q 212.37 59.79 175.27 74.35
  Q 165.52 78.18 156.49 81.20
  Q 127.73 90.82 103.25 95.25
  Q 74.80 100.39 46.23 104.87
  Q 41.32 105.64 37.07 106.91
  C 36.27 107.15 35.73 107.89 35.74 108.72
  Q 36.65 175.80 41.93 241.78
  Q 42.78 252.48 44.38 261.61
  Q 54.53 319.82 77.36 374.42
  Q 81.27 383.79 87.94 396.06
  Q 107.91 432.85 132.59 464.60
  Q 138.59 472.32 145.52 479.86
  Q 158.92 494.46 169.94 504.31
  Q 175.60 509.38 205.06 534.19
  Q 211.63 539.72 223.54 546.74
  Q 223.69 546.83 233.18 552.62
  Q 240.93 557.36 249.80 561.09
  Q 251.48 561.79 253.19 561.14
  Q 259.28 558.79 265.50 555.63
  Q 269.68 553.50 277.10 548.78
  Q 281.58 545.93 286.13 543.17
  Q 291.14 540.13 294.92 537.21
  Q 310.93 524.87 329.94 507.94
  Q 349.93 490.13 365.84 471.67
  Q 371.89 464.65 378.27 456.01
  Q 399.34 427.50 416.38 396.35
  Q 421.51 386.97 426.94 374.44
  Q 444.36 334.19 453.68 292.54
  Q 456.22 281.17 457.81 272.96
  Q 462.30 249.71 464.00 222.50
  Q 467.57 165.39 468.95 107.62
  C 468.96 107.31 468.74 107.05 468.45 106.99
  Q 444.80 102.34 420.93 98.60
  Q 356.87 88.56 298.19 61.06
  Q 270.35 48.02 257.33 41.46
  Q 254.58 40.08 253.12 39.92"
/>
</g>
<path fill="#000000" d="
  M 249.81 0.00
  Q 252.31 0.00 254.81 0.00
  Q 298.29 22.48 339.31 38.44
  Q 388.46 57.56 442.54 66.28
  Q 454.87 68.27 454.94 68.29
  Q 470.59 70.90 486.25 73.51
  Q 495.22 75.00 504.00 77.31
  Q 504.00 83.44 504.00 89.56
  Q 501.64 154.26 500.25 178.75
  Q 498.12 216.28 497.00 227.75
  Q 494.42 254.25 486.50 288.75
  Q 473.22 346.62 449.14 396.48
  Q 444.94 405.17 439.82 414.17
  Q 419.03 450.73 393.25 483.97
  Q 387.33 491.61 380.38 499.25
  Q 365.57 515.55 354.81 525.56
  Q 337.65 541.54 311.38 562.72
  Q 303.10 569.41 295.98 573.95
  Q 289.53 578.06 279.75 584.00
  Q 264.49 593.26 252.19 598.00
  Q 251.44 598.00 250.69 598.00
  Q 241.67 594.56 233.32 589.83
  Q 231.67 588.90 216.89 580.03
  Q 205.29 573.08 196.56 566.19
  Q 188.89 560.12 159.81 535.44
  Q 141.08 519.53 122.22 498.13
  Q 115.74 490.78 109.47 482.73
  Q 88.99 456.40 71.96 427.71
  Q 64.83 415.70 61.88 410.43
  Q 53.48 395.42 46.00 377.50
  Q 32.72 345.69 24.75 316.75
  Q 15.00 281.36 9.87 253.77
  Q 8.50 246.42 7.75 237.25
  Q 3.09 180.52 1.32 128.00
  Q 0.77 111.46 0.00 94.94
  Q 0.00 86.19 0.00 77.44
  Q 1.56 76.64 2.25 76.50
  Q 16.57 73.68 31.00 71.50
  Q 59.28 67.23 87.29 61.46
  Q 122.34 54.24 155.94 41.94
  Q 200.33 25.68 249.81 0.00
  Z
  M 20.17 96.65
  Q 21.32 170.18 27.39 242.54
  Q 28.27 252.98 30.08 262.33
  Q 36.70 296.42 46.82 329.64
  Q 49.70 339.06 53.12 348.62
  Q 61.20 371.19 68.06 385.44
  Q 87.20 425.15 116.91 464.57
  Q 123.23 472.96 129.38 480.21
  Q 148.13 502.35 166.81 518.19
  Q 195.71 542.69 201.06 546.94
  Q 210.27 554.24 222.98 561.80
  Q 235.02 568.96 236.81 569.96
  Q 243.72 573.78 251.42 576.76
  C 252.05 577.00 252.75 577.00 253.37 576.75
  Q 264.98 572.13 275.08 566.00
  Q 281.86 561.88 288.65 557.78
  Q 295.84 553.44 301.74 548.86
  Q 319.19 535.31 337.19 519.44
  Q 357.18 501.80 374.17 482.52
  Q 380.46 475.38 386.80 467.02
  Q 408.78 437.99 426.72 406.31
  Q 431.72 397.47 435.98 388.59
  Q 448.88 361.66 457.31 335.56
  Q 468.60 300.63 475.56 261.85
  Q 477.31 252.11 478.27 242.05
  Q 480.46 219.23 482.25 186.50
  Q 484.72 141.31 485.68 96.54
  C 485.69 96.04 485.34 95.61 484.85 95.52
  Q 460.67 90.92 436.45 87.01
  Q 422.12 84.69 416.72 83.66
  Q 359.30 72.71 305.88 48.70
  Q 281.20 37.61 257.10 25.31
  Q 253.35 23.40 250.06 25.06
  Q 209.56 45.60 171.27 60.60
  Q 161.31 64.50 152.48 67.44
  Q 117.96 78.89 82.07 85.10
  Q 53.82 89.99 25.51 94.55
  Q 22.89 94.97 20.73 95.82
  C 20.39 95.95 20.16 96.28 20.17 96.65
  Z"
/>
<path fill="#bfbfbf" d="
  M 20.17 96.65
  C 20.16 96.28 20.39 95.95 20.73 95.82
  Q 22.89 94.97 25.51 94.55
  Q 53.82 89.99 82.07 85.10
  Q 117.96 78.89 152.48 67.44
  Q 161.31 64.50 171.27 60.60
  Q 209.56 45.60 250.06 25.06
  Q 253.35 23.40 257.10 25.31
  Q 281.20 37.61 305.88 48.70
  Q 359.30 72.71 416.72 83.66
  Q 422.12 84.69 436.45 87.01
  Q 460.67 90.92 484.85 95.52
  C 485.34 95.61 485.69 96.04 485.68 96.54
  Q 484.72 141.31 482.25 186.50
  Q 480.46 219.23 478.27 242.05
  Q 477.31 252.11 475.56 261.85
  Q 468.60 300.63 457.31 335.56
  Q 448.88 361.66 435.98 388.59
  Q 431.72 397.47 426.72 406.31
  Q 408.78 437.99 386.80 467.02
  Q 380.46 475.38 374.17 482.52
  Q 357.18 501.80 337.19 519.44
  Q 319.19 535.31 301.74 548.86
  Q 295.84 553.44 288.65 557.78
  Q 281.86 561.88 275.08 566.00
  Q 264.98 572.13 253.37 576.75
  C 252.75 577.00 252.05 577.00 251.42 576.76
  Q 243.72 573.78 236.81 569.96
  Q 235.02 568.96 222.98 561.80
  Q 210.27 554.24 201.06 546.94
  Q 195.71 542.69 166.81 518.19
  Q 148.13 502.35 129.38 480.21
  Q 123.23 472.96 116.91 464.57
  Q 87.20 425.15 68.06 385.44
  Q 61.20 371.19 53.12 348.62
  Q 49.70 339.06 46.82 329.64
  Q 36.70 296.42 30.08 262.33
  Q 28.27 252.98 27.39 242.54
  Q 21.32 170.18 20.17 96.65
  Z
  M 253.12 39.92
  Q 250.75 39.67 248.56 40.81
  Q 212.37 59.79 175.27 74.35
  Q 165.52 78.18 156.49 81.20
  Q 127.73 90.82 103.25 95.25
  Q 74.80 100.39 46.23 104.87
  Q 41.32 105.64 37.07 106.91
  C 36.27 107.15 35.73 107.89 35.74 108.72
  Q 36.65 175.80 41.93 241.78
  Q 42.78 252.48 44.38 261.61
  Q 54.53 319.82 77.36 374.42
  Q 81.27 383.79 87.94 396.06
  Q 107.91 432.85 132.59 464.60
  Q 138.59 472.32 145.52 479.86
  Q 158.92 494.46 169.94 504.31
  Q 175.60 509.38 205.06 534.19
  Q 211.63 539.72 223.54 546.74
  Q 223.69 546.83 233.18 552.62
  Q 240.93 557.36 249.80 561.09
  Q 251.48 561.79 253.19 561.14
  Q 259.28 558.79 265.50 555.63
  Q 269.68 553.50 277.10 548.78
  Q 281.58 545.93 286.13 543.17
  Q 291.14 540.13 294.92 537.21
  Q 310.93 524.87 329.94 507.94
  Q 349.93 490.13 365.84 471.67
  Q 371.89 464.65 378.27 456.01
  Q 399.34 427.50 416.38 396.35
  Q 421.51 386.97 426.94 374.44
  Q 444.36 334.19 453.68 292.54
  Q 456.22 281.17 457.81 272.96
  Q 462.30 249.71 464.00 222.50
  Q 467.57 165.39 468.95 107.62
  C 468.96 107.31 468.74 107.05 468.45 106.99
  Q 444.80 102.34 420.93 98.60
  Q 356.87 88.56 298.19 61.06
  Q 270.35 48.02 257.33 41.46
  Q 254.58 40.08 253.12 39.92
  Z"
/>
<path fill="#000000" d="
  M 257.33 41.46
  Q 270.35 48.02 298.19 61.06
  Q 356.87 88.56 420.93 98.60
  Q 444.80 102.34 468.45 106.99
  C 468.74 107.05 468.96 107.31 468.95 107.62
  Q 467.57 165.39 464.00 222.50
  Q 462.30 249.71 457.81 272.96
  Q 456.22 281.17 453.68 292.54
  Q 444.36 334.19 426.94 374.44
  Q 421.51 386.97 416.38 396.35
  Q 399.34 427.50 378.27 456.01
  Q 371.89 464.65 365.84 471.67
  Q 349.93 490.13 329.94 507.94
  Q 310.93 524.87 294.92 537.21
  Q 291.14 540.13 286.13 543.17
  Q 281.58 545.93 277.10 548.78
  Q 269.68 553.50 265.50 555.63
  Q 259.28 558.79 253.19 561.14
  Q 251.48 561.79 249.80 561.09
  Q 240.93 557.36 233.18 552.62
  Q 223.69 546.83 223.54 546.74
  Q 211.63 539.72 205.06 534.19
  Q 175.60 509.38 169.94 504.31
  Q 158.92 494.46 145.52 479.86
  Q 138.59 472.32 132.59 464.60
  Q 107.91 432.85 87.94 396.06
  Q 81.27 383.79 77.36 374.42
  Q 54.53 319.82 44.38 261.61
  Q 42.78 252.48 41.93 241.78
  Q 36.65 175.80 35.74 108.72
  C 35.73 107.89 36.27 107.15 37.07 106.91
  Q 41.32 105.64 46.23 104.87
  Q 74.80 100.39 103.25 95.25
  Q 127.73 90.82 156.49 81.20
  Q 165.52 78.18 175.27 74.35
  Q 212.37 59.79 248.56 40.81
  Q 250.75 39.67 253.12 39.92
  Q 254.58 40.08 257.33 41.46
  Z"
/>
</svg>
